<?xml version="1.0" encoding="UTF-8" standalone="yes"?>
<svg xmlns="http://www.w3.org/2000/svg" viewBox="0 0 50 50" width="50" height="50" fill="#000000">
  <path d="M 25 10 C 22.125 10 19.027344 11.570313 17.316406 14 L 20.625 14 L 24.03125 12.109375 L 25 11.566406 L 25.96875 12.109375 L 29.375 14 L 32.683594 14 C 30.972656 11.570313 27.875 10 25 10 Z M 16 12 L 15 13 L 15 16 L 14 16 L 14 18 L 8 18 L 8 17.234375 L 9.117188 15 L 0.882813 15 L 2 17.234375 L 2 20 L 1 20 L 1 22 L 2 22 L 2 34 L 0 34 L 0 40 L 50 40 L 50 34 L 48 34 L 48 22 L 49 22 L 49 20 L 48 20 L 48 17.234375 L 49.117188 15 L 40.882813 15 L 42 17.234375 L 42 18 L 36 18 L 36 16 L 35 16 L 35 13 L 34 12 L 33 13 L 33 16 L 29.234375 16 L 25 13.882813 L 20.765625 16 L 17 16 L 17 13 Z M 25 16.117188 L 32.765625 20 L 17.234375 20 Z M 4 17 L 6 17 L 6 20 L 4 20 Z M 44 17 L 46 17 L 46 20 L 44 20 Z M 8 22 L 10 22 L 10 34 L 8 34 Z M 16 22 L 18 22 L 18 34 L 16 34 Z M 20 22 L 22 22 L 22 34 L 20 34 Z M 24 22 L 26 22 L 26 34 L 24 34 Z M 28 22 L 30 22 L 30 34 L 28 34 Z M 32 22 L 34 22 L 34 34 L 32 34 Z M 40 22 L 42 22 L 42 34 L 40 34 Z M 4 24 L 6 24 L 6 26 L 4 26 Z M 12 24 L 14 24 L 14 26 L 12 26 Z M 36 24 L 38 24 L 38 26 L 36 26 Z M 44 24 L 46 24 L 46 26 L 44 26 Z M 5 29 C 5.550781 29 6 29.449219 6 30 L 6 33 L 4 33 L 4 30 C 4 29.449219 4.449219 29 5 29 Z M 13 29 C 13.550781 29 14 29.449219 14 30 L 14 33 L 12 33 L 12 30 C 12 29.449219 12.449219 29 13 29 Z M 37 29 C 37.550781 29 38 29.449219 38 30 L 38 33 L 36 33 L 36 30 C 36 29.449219 36.449219 29 37 29 Z M 45 29 C 45.550781 29 46 29.449219 46 30 L 46 33 L 44 33 L 44 30 C 44 29.449219 44.449219 29 45 29 Z M 15.617188 36 L 34.382813 36 L 35.382813 38 L 14.617188 38 Z"/>
</svg>
