<?xml version="1.0" encoding="UTF-8" standalone="yes"?>
<svg xmlns="http://www.w3.org/2000/svg" viewBox="0 0 64 64" width="64" height="64" fill="#000000">
  <path d="M 31 1 L 31 4 L 28 4 L 28 6 L 31 6 L 31 10.755859 C 23.383 25.545859 20.166047 26.911812 19.873047 27.007812 C 19.380047 27.068812 19 27.49 19 28 C 19 28.553 19.448 29 20 29 L 21 29 L 21 30.314453 L 1.6386719 37.830078 C 1.2536719 37.979078 1 38.350672 1 38.763672 L 1 43.763672 C 1 44.093672 1.1635469 44.401891 1.4355469 44.587891 C 1.6045469 44.702891 1.801 44.763672 2 44.763672 C 2.122 44.763672 2.2443281 44.740312 2.3613281 44.695312 L 3 44.447266 L 3 61 C 3 61.553 3.448 62 4 62 L 22 62 L 42 62 L 60 62 C 60.552 62 61 61.553 61 61 L 61 44.447266 L 61.638672 44.695312 C 61.755672 44.740313 61.879953 44.761719 62.001953 44.761719 C 62.200953 44.761719 62.397406 44.702891 62.566406 44.587891 C 62.838406 44.401891 63 44.093672 63 43.763672 L 63 38.763672 C 63 38.350672 62.746328 37.979078 62.361328 37.830078 L 43 30.314453 L 43 29 L 44 29 C 44.552 29 45 28.553 45 28 C 45 27.49 44.619953 27.068813 44.126953 27.007812 C 43.833953 26.911812 40.617 25.545859 33 10.755859 L 33 6 L 36 6 L 36 4 L 33 4 L 33 1 L 31 1 z M 32 13.167969 C 36.133 21.008969 39.026984 24.991 40.958984 27 L 39 27 C 38.448 27 38 27.447 38 28 C 38 28.553 38.448 29 39 29 L 41 29 L 41 60 L 37 60 L 37 48 C 37 47.447 36.552 47 36 47 L 28 47 C 27.448 47 27 47.447 27 48 L 27 60 L 23 60 L 23 29 L 35 29 C 35.552 29 36 28.553 36 28 C 36 27.447 35.552 27 35 27 L 23.041016 27 C 24.973016 24.991 27.868 21.008969 32 13.167969 z M 43 32.460938 L 61 39.447266 L 61 42.302734 L 43 35.314453 L 43 32.460938 z M 21 32.462891 L 21 35.314453 L 3 42.302734 L 3 39.447266 L 21 32.462891 z M 32 34 C 29.794 34 28 35.794 28 38 C 28 40.206 29.794 42 32 42 C 34.206 42 36 40.206 36 38 C 36 35.794 34.206 34 32 34 z M 32 36 C 33.103 36 34 36.897 34 38 C 34 39.103 33.103 40 32 40 C 30.897 40 30 39.103 30 38 C 30 36.897 30.897 36 32 36 z M 21 37.460938 L 21 60 L 5 60 L 5 43.671875 L 21 37.460938 z M 43 37.460938 L 59 43.671875 L 59 60 L 43 60 L 43 37.460938 z M 13 44 C 12.765 44 12.530297 44.081094 12.341797 44.246094 C 12.246797 44.330094 10 46.331 10 49.375 L 10 51 C 10 51.553 10.448 52 11 52 L 15 52 C 15.552 52 16 51.553 16 51 L 16 49.375 C 16 46.331 13.754203 44.330094 13.658203 44.246094 C 13.469703 44.081094 13.235 44 13 44 z M 51 44 C 50.765 44 50.530297 44.081094 50.341797 44.246094 C 50.246797 44.330094 48 46.331 48 49.375 L 48 51 C 48 51.553 48.448 52 49 52 L 53 52 C 53.552 52 54 51.553 54 51 L 54 49.375 C 54 46.331 51.754203 44.330094 51.658203 44.246094 C 51.469703 44.081094 51.235 44 51 44 z M 13 46.517578 C 13.462 47.160578 14 48.167 14 49.375 L 14 50 L 12 50 L 12 49.375 C 12 48.164 12.537 47.160578 13 46.517578 z M 51 46.517578 C 51.462 47.160578 52 48.167 52 49.375 L 52 50 L 50 50 L 50 49.375 C 50 48.164 50.537 47.160578 51 46.517578 z M 29 49 L 35 49 L 35 60 L 29 60 L 29 49 z M 8 54 C 7.448 54 7 54.448 7 55 L 7 57 C 7 57.552 7.448 58 8 58 C 8.552 58 9 57.552 9 57 L 9 55 C 9 54.448 8.552 54 8 54 z M 13 54 C 12.448 54 12 54.448 12 55 L 12 57 C 12 57.552 12.448 58 13 58 C 13.552 58 14 57.552 14 57 L 14 55 C 14 54.448 13.552 54 13 54 z M 18 54 C 17.448 54 17 54.448 17 55 L 17 57 C 17 57.552 17.448 58 18 58 C 18.552 58 19 57.552 19 57 L 19 55 C 19 54.448 18.552 54 18 54 z M 46 54 C 45.448 54 45 54.448 45 55 L 45 57 C 45 57.552 45.448 58 46 58 C 46.552 58 47 57.552 47 57 L 47 55 C 47 54.448 46.552 54 46 54 z M 51 54 C 50.448 54 50 54.448 50 55 L 50 57 C 50 57.552 50.448 58 51 58 C 51.552 58 52 57.552 52 57 L 52 55 C 52 54.448 51.552 54 51 54 z M 56 54 C 55.448 54 55 54.448 55 55 L 55 57 C 55 57.552 55.448 58 56 58 C 56.552 58 57 57.552 57 57 L 57 55 C 57 54.448 56.552 54 56 54 z"/>
</svg>
