<?xml version="1.0" encoding="UTF-8" standalone="yes"?>
<svg xmlns="http://www.w3.org/2000/svg" xmlns:xlink="http://www.w3.org/1999/xlink" width="50px" height="50px" viewBox="0 0 50 50" version="1.1" fill="#000000">
  <g id="surface18477">
    <path style=" stroke:none;fill-rule:nonzero;fill:#000000;fill-opacity:1;" d="M 25 0 C 23.917969 0 23.039062 0.351562 22.40625 1.03125 C 21.589844 1.90625 21.277344 3.222656 21.40625 5 C 21.40625 5.640625 21.660156 6.070312 21.875 6.3125 C 22.003906 6.824219 22.207031 7.164062 22.34375 7.4375 C 22.402344 7.550781 22.441406 7.652344 22.46875 7.71875 C 22.214844 7.847656 21.734375 8.019531 21.375 8.15625 C 20.171875 8.554688 18.890625 9.847656 18.1875 11.375 L 17.96875 11.84375 C 17.257812 13.355469 16.59375 14.78125 16.59375 15.8125 C 16.59375 16.925781 17.6875 17.972656 19.5 19.59375 C 19.617188 19.699219 19.730469 19.804688 19.84375 19.90625 C 19.78125 20.941406 19.8125 23.394531 20.71875 27.0625 C 20.816406 28.929688 21.019531 31.222656 21.21875 33.46875 C 21.328125 34.699219 21.445312 35.910156 21.53125 37 L 28.59375 37 C 28.679688 35.90625 28.765625 34.703125 28.875 33.46875 C 29.074219 31.226562 29.308594 28.929688 29.40625 27.0625 C 30.320312 23.367188 30.3125 20.894531 30.25 19.875 C 30.429688 19.703125 30.621094 19.523438 30.8125 19.34375 C 32.429688 17.832031 33.40625 16.867188 33.40625 15.8125 C 33.40625 14.789062 32.761719 13.277344 31.8125 11.375 C 31.105469 9.84375 29.804688 8.550781 28.625 8.15625 L 28.375 8.0625 C 28.058594 7.949219 27.730469 7.835938 27.53125 7.75 C 27.554688 7.679688 27.585938 7.578125 27.65625 7.4375 C 27.796875 7.15625 27.996094 6.785156 28.125 6.25 C 28.285156 6.03125 28.480469 5.695312 28.59375 5.125 C 28.789062 3.375 28.472656 2.003906 27.65625 1.09375 C 27.011719 0.371094 26.09375 0 25 0 Z M 17 39 C 16.449219 39 16 39.445312 16 40 L 16 42 L 34 42 L 34 40 C 34 39.445312 33.554688 39 33 39 Z M 12 44 C 11.449219 44 11 44.445312 11 45 L 11 49 C 11 49.554688 11.449219 50 12 50 L 38 50 C 38.554688 50 39 49.554688 39 49 L 39 45 C 39 44.445312 38.554688 44 38 44 Z M 12 44 "/>
  </g>
</svg>
