<?xml version="1.0" encoding="UTF-8" standalone="yes"?>
<svg xmlns="http://www.w3.org/2000/svg" viewBox="0 0 50 50" width="50" height="50" fill="#000000">
  <path d="M 17.125 0 C 14.007813 0 13.625 0.375 13.40625 0.9375 C 13.144531 1.597656 13.4375 2.03125 14.78125 3.9375 C 15.566406 5.050781 16.558594 6.449219 17.09375 7.5 C 18.242188 9.746094 18.699219 11.25 18.96875 12.15625 C 19.171875 12.839844 19.285156 13.3125 19.59375 13.65625 C 19.777344 13.859375 20.136719 14.09375 20.71875 14.09375 C 22.1875 14.09375 24.917969 12.472656 26.5 10.15625 C 28.15625 7.734375 28.949219 3.421875 27.90625 2.46875 C 25.339844 0.117188 18.476563 0 17.125 0 Z M 30.28125 5.5 C 29.984375 7.683594 29.039063 9.992188 28.15625 11.28125 C 26.820313 13.234375 24.746094 14.867188 22.8125 15.625 C 22.796875 17.199219 22.640625 18.523438 22.53125 19.53125 C 22.386719 20.847656 22.328125 21.5 22.59375 22.03125 C 22.902344 22.648438 23.574219 22.96875 24.625 22.96875 C 26.589844 22.96875 30.015625 21.878906 32.78125 19.8125 C 37.699219 16.140625 39.476563 10.851563 38.90625 9.59375 C 38.335938 8.335938 34.859375 6.546875 30.28125 5.5 Z M 39.96875 14.125 C 38.820313 16.621094 36.757813 19.378906 34 21.4375 C 31.5 23.304688 28.640625 24.375 26.4375 24.78125 C 26.054688 26.011719 25.652344 27.0625 25.3125 27.9375 C 24.6875 29.546875 24.261719 30.597656 24.4375 31.53125 C 24.503906 31.890625 24.773438 32.199219 25.125 32.3125 C 25.773438 32.519531 27.144531 32.875 29.125 32.875 C 31.730469 32.875 34.386719 32.253906 36.8125 31.0625 C 41.832031 28.601563 45.53125 23.398438 46.4375 20.65625 C 46.546875 20.324219 46.414063 19.890625 46.1875 19.625 C 44.191406 17.25 41.957031 15.433594 39.96875 14.125 Z M 45.875 25.75 C 43.960938 28.375 41.144531 31.164063 37.71875 32.84375 C 35.023438 34.167969 32.035156 34.875 29.125 34.875 C 28.542969 34.875 28.023438 34.859375 27.53125 34.8125 C 26.792969 36.574219 26.027344 38.015625 25.5 39.03125 C 24.863281 40.253906 24.6875 40.628906 24.71875 41.0625 C 24.777344 41.917969 25.378906 42.78125 29.59375 42.78125 C 32.402344 42.78125 36.550781 42.355469 39.6875 41.125 C 46.035156 38.636719 49.566406 34.925781 49.96875 33.21875 C 50.007813 33.046875 50.023438 32.859375 49.96875 32.6875 C 49.171875 30.132813 47.703125 27.691406 45.875 25.75 Z M 1 36 C 0.449219 36 0 36.445313 0 37 L 0 42 C 0 42.554688 0.449219 43 1 43 L 21 43 C 21.550781 43 22 42.554688 22 42 L 22 37 C 22 36.445313 21.550781 36 21 36 Z M 41.9375 42.3125 C 41.4375 42.539063 40.9375 42.757813 40.40625 42.96875 C 39.046875 43.5 37.527344 43.90625 36 44.1875 C 36.078125 45.054688 35.964844 45.703125 35.65625 46.125 C 35.171875 46.785156 34.152344 46.957031 33.25 47.09375 C 32.378906 47.226563 31.546875 47.351563 31.09375 48 C 30.929688 48.238281 30.761719 48.628906 30.875 49.1875 C 30.96875 49.65625 31.367188 50 31.84375 50 L 46.3125 50 C 46.660156 50 46.972656 49.828125 47.15625 49.53125 C 47.339844 49.238281 47.371094 48.871094 47.21875 48.5625 C 46.710938 47.542969 45.761719 47.285156 45 47.09375 C 43.746094 46.78125 42.421875 46.460938 41.9375 42.3125 Z M 3.4375 45 L 2.0625 48.65625 C 1.867188 49.171875 2.140625 49.742188 2.65625 49.9375 C 2.773438 49.980469 2.882813 50 3 50 C 3.402344 50 3.785156 49.742188 3.9375 49.34375 L 5.59375 45 Z M 16.40625 45 L 18.0625 49.34375 C 18.214844 49.742188 18.597656 50 19 50 C 19.117188 50 19.226563 49.980469 19.34375 49.9375 C 19.859375 49.742188 20.132813 49.171875 19.9375 48.65625 L 18.5625 45 Z"/>
</svg>
